<svg version="1.1" id="Layer_1" xmlns="http://www.w3.org/2000/svg" xmlns:xlink="http://www.w3.org/1999/xlink" x="0px" y="0px"
	 width="100%" viewBox="0 0 500 500" enable-background="new 0 0 500 500" xml:space="preserve">
<path fill="#FFFFFF" opacity="1.000000" stroke="none" 
	d="
M328.000000,501.000000 
	C218.666687,501.000000 109.833382,501.000000 1.000058,501.000000 
	C1.000039,334.333405 1.000039,167.666794 1.000019,1.000148 
	C167.666565,1.000099 334.333130,1.000099 500.999756,1.000049 
	C500.999847,167.666519 500.999847,334.333038 500.999939,500.999786 
	C443.500000,501.000000 386.000000,501.000000 328.000000,501.000000 
M239.458420,184.033890 
	C230.299591,173.565659 219.135040,165.947601 206.310013,160.679901 
	C177.293320,148.761688 147.239914,148.457367 117.024155,153.784454 
	C97.554810,157.216919 79.874008,165.275467 65.700317,179.677643 
	C46.896889,198.784210 45.995918,223.374954 63.213585,243.864700 
	C69.856674,251.770248 78.004723,257.710968 87.122681,262.386139 
	C97.392410,267.651917 97.345810,267.601501 95.352211,279.127075 
	C94.090416,286.421875 93.063042,293.757233 91.805176,301.884277 
	C95.491074,300.694183 98.527367,300.207428 101.062050,298.810516 
	C112.386833,292.569366 123.550148,286.035950 134.822052,279.697479 
	C136.468079,278.771881 138.380646,277.772308 140.178192,277.756622 
	C149.159958,277.678101 158.144485,277.916351 166.840454,278.655243 
	C148.026413,298.137085 145.721191,321.393280 160.548157,340.900238 
	C167.758591,350.386566 176.928574,357.420471 187.403763,362.833862 
	C197.366150,367.982147 197.339645,367.886261 195.384949,379.205322 
	C194.100449,386.643616 193.053253,394.122894 191.796799,402.250122 
	C207.987091,397.256622 221.514862,389.304047 234.512711,380.230499 
	C236.495438,378.846405 239.297058,378.092957 241.747757,378.023010 
	C249.212860,377.809998 256.716217,378.502747 264.160492,378.074371 
	C289.545288,376.613678 312.944031,369.442169 332.443878,352.388519 
	C356.522919,331.330078 357.510712,301.053009 334.270691,279.140442 
	C327.141571,272.418488 318.059692,267.767578 310.758850,261.994507 
	C323.533173,262.213440 336.309692,262.359802 349.079193,262.740631 
	C350.728394,262.789795 352.455902,263.866180 353.951996,264.784546 
	C361.596405,269.477081 368.985138,274.624084 376.840912,278.921936 
	C382.977081,282.278992 389.665222,284.627045 397.154572,287.877655 
	C395.318970,276.595184 393.845032,266.763794 392.064697,256.988190 
	C391.390503,253.286392 392.293274,251.369705 395.949982,249.854797 
	C409.273346,244.335175 420.639618,236.070053 429.073822,224.209930 
	C438.121979,211.486496 440.111145,197.581421 434.535248,183.013779 
	C427.641937,165.004288 413.242737,154.376266 396.409851,146.939987 
	C365.865417,133.446320 333.895355,132.759735 301.926788,139.648804 
	C275.189392,145.410583 252.375275,158.006348 239.458420,184.033890 
z"/>
<path fill="#587898" opacity="1.000000" stroke="none" 
	d="
M309.872040,262.168274 
	C318.059692,267.767578 327.141571,272.418488 334.270691,279.140442 
	C357.510712,301.053009 356.522919,331.330078 332.443878,352.388519 
	C312.944031,369.442169 289.545288,376.613678 264.160492,378.074371 
	C256.716217,378.502747 249.212860,377.809998 241.747757,378.023010 
	C239.297058,378.092957 236.495438,378.846405 234.512711,380.230499 
	C221.514862,389.304047 207.987091,397.256622 191.796799,402.250122 
	C193.053253,394.122894 194.100449,386.643616 195.384949,379.205322 
	C197.339645,367.886261 197.366150,367.982147 187.403763,362.833862 
	C176.928574,357.420471 167.758591,350.386566 160.548157,340.900238 
	C145.721191,321.393280 148.026413,298.137085 167.262238,278.201782 
	C168.559357,276.848846 169.434692,275.949310 170.629776,274.997559 
	C187.929382,261.118713 207.874832,254.751404 229.522278,251.842728 
	C231.224701,251.625778 232.581650,251.362259 234.410767,251.123779 
	C239.017899,251.097382 243.155273,250.930328 247.287292,251.017624 
	C257.187103,251.226807 267.084381,251.555588 277.328308,252.001892 
	C288.406616,255.501221 299.139313,258.834747 309.872040,262.168274 
M181.048172,277.496063 
	C178.922775,279.610046 176.757385,281.685547 174.678497,283.844299 
	C161.427017,297.605103 158.542175,316.953278 166.944473,334.032684 
	C174.595291,349.584534 188.003387,358.493347 203.057785,365.330353 
	C206.917633,367.083313 207.390579,368.854523 206.380432,372.545349 
	C204.392700,379.807831 202.885452,387.201843 201.057526,395.065948 
	C202.595276,394.760986 203.473694,394.795319 204.123337,394.426575 
	C213.489807,389.109741 222.990311,383.999512 232.086349,378.250610 
	C235.654877,375.995178 238.953033,374.831024 243.137222,374.973694 
	C251.049698,375.243500 259.003265,375.462708 266.894775,374.975037 
	C289.991760,373.547760 311.247894,366.627228 329.271698,351.733765 
	C339.816376,343.020538 347.093658,332.104218 348.034363,317.850006 
	C349.285309,298.893921 339.772430,285.337708 325.473541,274.821228 
	C297.656342,254.362335 265.836761,251.012054 232.829330,255.385864 
	C213.974533,257.884308 196.642792,265.031738 181.048172,277.496063 
z"/>
<path fill="#EB5F29" opacity="1.000000" stroke="none" 
	d="
M310.315430,262.081390 
	C299.139313,258.834747 288.406616,255.501221 277.212433,251.685638 
	C266.029266,245.431122 256.173981,238.538376 248.095291,228.871857 
	C247.636520,228.294235 247.325745,228.001694 246.940887,227.383041 
	C244.902756,223.452805 242.684525,219.961502 241.024673,216.222336 
	C236.847321,206.812012 237.464218,196.988983 239.283234,186.944855 
	C239.702377,185.966187 239.885391,185.182800 240.068390,184.399414 
	C252.375275,158.006348 275.189392,145.410583 301.926788,139.648804 
	C333.895355,132.759735 365.865417,133.446320 396.409851,146.939987 
	C413.242737,154.376266 427.641937,165.004288 434.535248,183.013779 
	C440.111145,197.581421 438.121979,211.486496 429.073822,224.209930 
	C420.639618,236.070053 409.273346,244.335175 395.949982,249.854797 
	C392.293274,251.369705 391.390503,253.286392 392.064697,256.988190 
	C393.845032,266.763794 395.318970,276.595184 397.154572,287.877655 
	C389.665222,284.627045 382.977081,282.278992 376.840912,278.921936 
	C368.985138,274.624084 361.596405,269.477081 353.951996,264.784546 
	C352.455902,263.866180 350.728394,262.789795 349.079193,262.740631 
	C336.309692,262.359802 323.533173,262.213440 310.315430,262.081390 
M387.106201,280.284515 
	C387.194855,280.332947 387.283478,280.381378 387.372101,280.429810 
	C387.249298,280.285461 387.126465,280.141144 387.014404,279.135437 
	C385.184601,270.270660 383.354797,261.405884 381.485840,252.351318 
	C383.118286,251.512939 384.690369,250.577759 386.358734,249.869415 
	C397.378021,245.190887 406.972107,238.515259 414.931854,229.552612 
	C422.253540,221.308441 426.716034,211.519318 426.771240,200.654404 
	C426.837769,187.560669 421.491119,175.972641 412.155823,166.784683 
	C393.754913,148.674149 370.657684,140.967850 345.571930,139.186539 
	C331.210999,138.166748 316.689575,138.310837 302.489166,141.977493 
	C282.359741,147.175079 263.782806,154.992798 250.509232,172.000046 
	C235.613419,191.085846 237.656326,213.861557 253.779129,231.194504 
	C265.181915,243.453140 279.578766,250.899124 295.555603,255.276062 
	C311.442505,259.628357 327.546356,262.306366 344.127106,260.044098 
	C348.849670,259.399780 352.852905,260.751129 357.108124,263.419312 
	C366.747467,269.463562 376.996155,274.536041 387.106201,280.284515 
z"/>
<path fill="#D1DB29" opacity="1.000000" stroke="none" 
	d="
M239.763412,184.216644 
	C239.885391,185.182800 239.702377,185.966187 238.982727,186.769226 
	C231.167908,177.369614 221.630569,170.729218 211.105591,165.645187 
	C183.950027,152.527878 155.375931,150.663559 126.205444,156.494904 
	C106.455223,160.443069 88.507988,168.423782 74.745598,183.785965 
	C63.038467,196.853989 58.457127,211.705444 64.796143,228.844482 
	C71.456848,246.853256 85.745094,257.091339 102.222786,264.759186 
	C106.469109,266.735199 107.618240,268.514740 106.264442,272.999603 
	C104.138687,280.041870 102.724251,287.298859 100.881348,294.996399 
	C102.465157,294.726349 103.351105,294.795746 103.992416,294.432831 
	C113.379608,289.120514 122.701370,283.691772 132.118515,278.433655 
	C134.623550,277.034912 137.364990,275.234863 140.053497,275.136322 
	C150.126526,274.767090 160.222595,275.026245 170.310028,275.049805 
	C169.434692,275.949310 168.559357,276.848846 167.406036,277.895782 
	C158.144485,277.916351 149.159958,277.678101 140.178192,277.756622 
	C138.380646,277.772308 136.468079,278.771881 134.822052,279.697479 
	C123.550148,286.035950 112.386833,292.569366 101.062050,298.810516 
	C98.527367,300.207428 95.491074,300.694183 91.805176,301.884277 
	C93.063042,293.757233 94.090416,286.421875 95.352211,279.127075 
	C97.345810,267.601501 97.392410,267.651917 87.122681,262.386139 
	C78.004723,257.710968 69.856674,251.770248 63.213585,243.864700 
	C45.995918,223.374954 46.896889,198.784210 65.700317,179.677643 
	C79.874008,165.275467 97.554810,157.216919 117.024155,153.784454 
	C147.239914,148.457367 177.293320,148.761688 206.310013,160.679901 
	C219.135040,165.947601 230.299591,173.565659 239.763412,184.216644 
z"/>
<path fill="#3C97D2" opacity="1.000000" stroke="none" 
	d="
M181.307495,277.251953 
	C196.642792,265.031738 213.974533,257.884308 232.829330,255.385864 
	C265.836761,251.012054 297.656342,254.362335 325.473541,274.821228 
	C339.772430,285.337708 349.285309,298.893921 348.034363,317.850006 
	C347.093658,332.104218 339.816376,343.020538 329.271698,351.733765 
	C311.247894,366.627228 289.991760,373.547760 266.894775,374.975037 
	C259.003265,375.462708 251.049698,375.243500 243.137222,374.973694 
	C238.953033,374.831024 235.654877,375.995178 232.086349,378.250610 
	C222.990311,383.999512 213.489807,389.109741 204.123337,394.426575 
	C203.473694,394.795319 202.595276,394.760986 201.057526,395.065948 
	C202.885452,387.201843 204.392700,379.807831 206.380432,372.545349 
	C207.390579,368.854523 206.917633,367.083313 203.057785,365.330353 
	C188.003387,358.493347 174.595291,349.584534 166.944473,334.032684 
	C158.542175,316.953278 161.427017,297.605103 174.678497,283.844299 
	C176.757385,281.685547 178.922775,279.610046 181.307495,277.251953 
M264.653931,319.812378 
	C263.397217,308.601837 253.562637,307.532776 245.812454,309.350220 
	C238.859818,310.980621 235.452423,318.523895 237.997971,325.707550 
	C239.974106,331.284332 246.130737,334.543243 253.082275,333.692200 
	C260.541565,332.779022 263.861023,329.046448 264.653931,319.812378 
M302.194275,326.288086 
	C302.463562,324.333862 302.986420,322.375824 302.957245,320.426056 
	C302.844727,312.912903 298.175415,308.839600 289.857666,308.792114 
	C281.073761,308.741974 276.246063,312.697144 275.939911,320.194397 
	C275.672119,326.752136 278.447876,331.068146 284.101044,332.884155 
	C291.310150,335.199982 297.837341,333.055756 302.194275,326.288086 
M201.924820,312.467285 
	C197.632065,318.531799 197.818771,325.867981 202.374725,330.143280 
	C207.155853,334.629913 216.655487,335.037170 221.818771,330.909271 
	C226.131088,327.461731 226.608826,322.707733 225.747726,317.774841 
	C225.001923,313.502502 222.290421,310.391235 218.085678,309.450867 
	C212.679611,308.241791 207.168747,307.940094 201.924820,312.467285 
z"/>
<path fill="#89C241" opacity="1.000000" stroke="none" 
	d="
M170.629776,274.997559 
	C160.222595,275.026245 150.126526,274.767090 140.053497,275.136322 
	C137.364990,275.234863 134.623550,277.034912 132.118515,278.433655 
	C122.701370,283.691772 113.379608,289.120514 103.992416,294.432831 
	C103.351105,294.795746 102.465157,294.726349 100.881348,294.996399 
	C102.724251,287.298859 104.138687,280.041870 106.264442,272.999603 
	C107.618240,268.514740 106.469109,266.735199 102.222786,264.759186 
	C85.745094,257.091339 71.456848,246.853256 64.796143,228.844482 
	C58.457127,211.705444 63.038467,196.853989 74.745598,183.785965 
	C88.507988,168.423782 106.455223,160.443069 126.205444,156.494904 
	C155.375931,150.663559 183.950027,152.527878 211.105591,165.645187 
	C221.630569,170.729218 231.167908,177.369614 238.746582,186.964508 
	C237.464218,196.988983 236.847321,206.812012 241.024673,216.222336 
	C242.684525,219.961502 244.902756,223.452805 246.669540,227.627640 
	C242.592941,237.446457 236.125504,244.797684 229.176788,251.796158 
	C207.874832,254.751404 187.929382,261.118713 170.629776,274.997559 
M156.946243,174.196823 
	C154.563507,178.459625 152.304550,182.798096 149.759796,186.961884 
	C147.635193,190.438217 144.912109,193.561646 142.920395,197.103577 
	C138.922684,204.212814 136.833817,212.765259 127.716820,215.679443 
	C127.716820,227.879593 127.631622,239.857162 127.841827,251.829544 
	C127.864113,253.098801 129.438705,255.221222 130.596893,255.457245 
	C146.424500,258.682526 162.345398,261.233337 178.582062,259.174774 
	C185.109360,258.347198 188.816299,254.325562 189.795151,247.920883 
	C190.047821,246.267563 190.959656,244.405563 192.163651,243.270493 
	C194.793045,240.791550 195.902710,238.264542 194.108063,234.889511 
	C192.664276,232.174316 193.266327,230.005768 195.358795,227.708969 
	C196.352829,226.617874 197.095718,223.932617 196.453156,222.958725 
	C194.026581,219.281036 193.699097,216.131073 196.693115,212.656708 
	C197.244019,212.017410 196.968033,210.379501 196.653214,209.328476 
	C195.077560,204.068298 191.252396,201.135880 185.564850,201.030518 
	C178.498138,200.899582 171.427139,200.999130 163.098709,200.999130 
	C164.658371,196.664124 165.845444,193.483032 166.947647,190.272797 
	C168.499130,185.754028 170.624298,181.313644 171.355194,176.659302 
	C172.473984,169.534836 168.438675,163.526184 162.699661,162.241577 
	C159.994446,161.636047 158.146500,162.093018 158.007339,165.461060 
	C157.898056,168.105698 157.385071,170.733643 156.946243,174.196823 
M104.082359,221.681335 
	C104.082344,229.346344 104.091881,237.011368 104.080254,244.676361 
	C104.058678,258.894348 102.842850,257.793945 117.281624,257.932831 
	C121.991829,257.978149 123.948959,256.178802 123.865883,251.463776 
	C123.707390,242.468521 123.717171,233.467010 123.844673,224.470764 
	C124.035156,211.031158 123.103668,212.884140 112.055084,212.847046 
	C104.521645,212.821747 104.149582,213.220200 104.082359,221.681335 
z"/>
<path fill="#FEFDFB" opacity="1.000000" stroke="none" 
	d="
M248.243286,229.156952 
	C256.173981,238.538376 266.029266,245.431122 276.866821,251.519836 
	C267.084381,251.555588 257.187103,251.226807 247.287292,251.017624 
	C243.155273,250.930328 239.017899,251.097382 234.600876,250.837952 
	C240.300537,244.277008 245.733994,237.669647 248.243286,229.156952 
z"/>
<path fill="#CED92D" opacity="1.000000" stroke="none" 
	d="
M248.095291,228.871857 
	C245.733994,237.669647 240.300537,244.277008 234.128693,250.812927 
	C232.581650,251.362259 231.224701,251.625778 229.522278,251.842728 
	C236.125504,244.797684 242.592941,237.446457 246.743622,227.953751 
	C247.325745,228.001694 247.636520,228.294235 248.095291,228.871857 
z"/>
<path fill="#EE8020" opacity="1.000000" stroke="none" 
	d="
M386.997070,280.003662 
	C376.996155,274.536041 366.747467,269.463562 357.108124,263.419312 
	C352.852905,260.751129 348.849670,259.399780 344.127106,260.044098 
	C327.546356,262.306366 311.442505,259.628357 295.555603,255.276062 
	C279.578766,250.899124 265.181915,243.453140 253.779129,231.194504 
	C237.656326,213.861557 235.613419,191.085846 250.509232,172.000046 
	C263.782806,154.992798 282.359741,147.175079 302.489166,141.977493 
	C316.689575,138.310837 331.210999,138.166748 345.571930,139.186539 
	C370.657684,140.967850 393.754913,148.674149 412.155823,166.784683 
	C421.491119,175.972641 426.837769,187.560669 426.771240,200.654404 
	C426.716034,211.519318 422.253540,221.308441 414.931854,229.552612 
	C406.972107,238.515259 397.378021,245.190887 386.358734,249.869415 
	C384.690369,250.577759 383.118286,251.512939 381.485840,252.351318 
	C383.354797,261.405884 385.184601,270.270660 387.007202,279.567719 
	C387.000000,280.000000 386.997070,280.003662 386.997070,280.003662 
M308.987732,207.521057 
	C314.972870,215.251373 316.771027,224.506088 318.009888,234.002014 
	C326.021942,234.002014 333.528839,233.613831 340.971558,234.137360 
	C346.001160,234.491135 347.768616,232.494232 349.057343,228.007172 
	C351.881775,218.173141 354.633728,208.403610 359.670837,199.193222 
	C365.477173,188.576218 364.025482,177.143555 357.963379,166.756699 
	C351.975037,156.496292 342.727234,150.797119 330.743256,151.367813 
	C318.168396,151.966644 309.151428,158.817032 304.102325,170.203339 
	C298.356537,183.160675 300.360840,195.505783 308.987732,207.521057 
M343.069214,241.125793 
	C334.839020,241.125793 326.608795,241.125793 318.288971,241.125793 
	C319.509796,247.023895 322.345123,249.702271 328.183716,250.030853 
	C334.569672,250.390213 341.363098,251.437195 345.396057,244.426270 
	C345.780792,243.757401 346.104401,242.765533 345.879578,242.126541 
	C345.705200,241.630981 344.630219,241.452286 343.069214,241.125793 
M342.209106,235.940201 
	C333.953857,235.940201 325.698608,235.940201 317.443359,235.940201 
	C317.222778,236.525009 317.002228,237.109818 316.781647,237.694611 
	C318.041138,238.366348 319.287415,239.588806 320.562286,239.619415 
	C328.187012,239.802383 335.820251,239.798157 343.445496,239.626602 
	C344.739319,239.597488 346.008087,238.454102 347.288452,237.825516 
	C345.897552,237.197067 344.506683,236.568619 342.209106,235.940201 
z"/>
<path fill="#EE8020" opacity="1.000000" stroke="none" 
	d="
M387.001831,279.998413 
	C387.126465,280.141144 387.249298,280.285461 387.372101,280.429810 
	C387.283478,280.381378 387.194855,280.332947 387.051636,280.144104 
	C386.997070,280.003662 387.000000,280.000000 387.001831,279.998413 
z"/>
<path fill="#FAFCFE" opacity="1.000000" stroke="none" 
	d="
M264.684723,320.211792 
	C263.861023,329.046448 260.541565,332.779022 253.082275,333.692200 
	C246.130737,334.543243 239.974106,331.284332 237.997971,325.707550 
	C235.452423,318.523895 238.859818,310.980621 245.812454,309.350220 
	C253.562637,307.532776 263.397217,308.601837 264.684723,320.211792 
z"/>
<path fill="#FCFDFE" opacity="1.000000" stroke="none" 
	d="
M302.056366,326.659515 
	C297.837341,333.055756 291.310150,335.199982 284.101044,332.884155 
	C278.447876,331.068146 275.672119,326.752136 275.939911,320.194397 
	C276.246063,312.697144 281.073761,308.741974 289.857666,308.792114 
	C298.175415,308.839600 302.844727,312.912903 302.957245,320.426056 
	C302.986420,322.375824 302.463562,324.333862 302.056366,326.659515 
z"/>
<path fill="#FCFDFE" opacity="1.000000" stroke="none" 
	d="
M202.198090,312.197235 
	C207.168747,307.940094 212.679611,308.241791 218.085678,309.450867 
	C222.290421,310.391235 225.001923,313.502502 225.747726,317.774841 
	C226.608826,322.707733 226.131088,327.461731 221.818771,330.909271 
	C216.655487,335.037170 207.155853,334.629913 202.374725,330.143280 
	C197.818771,325.867981 197.632065,318.531799 202.198090,312.197235 
z"/>
<path fill="#FEFFFE" opacity="1.000000" stroke="none" 
	d="
M156.998840,173.782913 
	C157.385071,170.733643 157.898056,168.105698 158.007339,165.461060 
	C158.146500,162.093018 159.994446,161.636047 162.699661,162.241577 
	C168.438675,163.526184 172.473984,169.534836 171.355194,176.659302 
	C170.624298,181.313644 168.499130,185.754028 166.947647,190.272797 
	C165.845444,193.483032 164.658371,196.664124 163.098709,200.999130 
	C171.427139,200.999130 178.498138,200.899582 185.564850,201.030518 
	C191.252396,201.135880 195.077560,204.068298 196.653214,209.328476 
	C196.968033,210.379501 197.244019,212.017410 196.693115,212.656708 
	C193.699097,216.131073 194.026581,219.281036 196.453156,222.958725 
	C197.095718,223.932617 196.352829,226.617874 195.358795,227.708969 
	C193.266327,230.005768 192.664276,232.174316 194.108063,234.889511 
	C195.902710,238.264542 194.793045,240.791550 192.163651,243.270493 
	C190.959656,244.405563 190.047821,246.267563 189.795151,247.920883 
	C188.816299,254.325562 185.109360,258.347198 178.582062,259.174774 
	C162.345398,261.233337 146.424500,258.682526 130.596893,255.457245 
	C129.438705,255.221222 127.864113,253.098801 127.841827,251.829544 
	C127.631622,239.857162 127.716820,227.879593 127.716820,215.679443 
	C136.833817,212.765259 138.922684,204.212814 142.920395,197.103577 
	C144.912109,193.561646 147.635193,190.438217 149.759796,186.961884 
	C152.304550,182.798096 154.563507,178.459625 156.998840,173.782913 
z"/>
<path fill="#FCFDFA" opacity="1.000000" stroke="none" 
	d="
M104.082413,221.209900 
	C104.149582,213.220200 104.521645,212.821747 112.055084,212.847046 
	C123.103668,212.884140 124.035156,211.031158 123.844673,224.470764 
	C123.717171,233.467010 123.707390,242.468521 123.865883,251.463776 
	C123.948959,256.178802 121.991829,257.978149 117.281624,257.932831 
	C102.842850,257.793945 104.058678,258.894348 104.080254,244.676361 
	C104.091881,237.011368 104.082344,229.346344 104.082413,221.209900 
z"/>
<path fill="#FFFEFE" opacity="1.000000" stroke="none" 
	d="
M308.766815,207.231873 
	C300.360840,195.505783 298.356537,183.160675 304.102325,170.203339 
	C309.151428,158.817032 318.168396,151.966644 330.743256,151.367813 
	C342.727234,150.797119 351.975037,156.496292 357.963379,166.756699 
	C364.025482,177.143555 365.477173,188.576218 359.670837,199.193222 
	C354.633728,208.403610 351.881775,218.173141 349.057343,228.007172 
	C347.768616,232.494232 346.001160,234.491135 340.971558,234.137360 
	C333.528839,233.613831 326.021942,234.002014 318.009888,234.002014 
	C316.771027,224.506088 314.972870,215.251373 308.766815,207.231873 
z"/>
<path fill="#FEF9F4" opacity="1.000000" stroke="none" 
	d="
M343.512390,241.129272 
	C344.630219,241.452286 345.705200,241.630981 345.879578,242.126541 
	C346.104401,242.765533 345.780792,243.757401 345.396057,244.426270 
	C341.363098,251.437195 334.569672,250.390213 328.183716,250.030853 
	C322.345123,249.702271 319.509796,247.023895 318.288971,241.125793 
	C326.608795,241.125793 334.839020,241.125793 343.512390,241.129272 
z"/>
<path fill="#FDEFE3" opacity="1.000000" stroke="none" 
	d="
M342.662445,235.940186 
	C344.506683,236.568619 345.897552,237.197067 347.288452,237.825500 
	C346.008087,238.454102 344.739319,239.597488 343.445496,239.626602 
	C335.820251,239.798157 328.187012,239.802383 320.562286,239.619415 
	C319.287415,239.588806 318.041138,238.366348 316.781647,237.694611 
	C317.002228,237.109818 317.222778,236.525009 317.443359,235.940201 
	C325.698608,235.940201 333.953857,235.940201 342.662445,235.940186 
z"/>
</svg>